# xmcd CD database file
#
# Track frame offsets:
#	150
#	14413
#	29087
#	44079
#	57371
#	69331
#	84027
#	98234
#	112776
#	126684
#	138888
#	151301
#	163928
#	176767
#	188361
#	202716
#	216102
#	230107
#	243317
#	258828
#	272885
#	285664
#
# Disc length: 3970 seconds
#
# Revision: 0
# Processed by: cddbd v1.5.1PL0 Copyright (c) Steve Scherf et al.
# Submitted via: CDex 1.51
#
DISCID=390f8016
DTITLE=Stan Kenton - Fascinating Rhythm
DYEAR=2001
DGENRE=Jazz
TTITLE0=Easy Go
TTITLE1=Love for Sale
TTITLE2=Viva Prado
TTITLE3=Something New (Sunset Tower)
TTITLE4=Theme for Alto
TTITLE5=Riff Rhapsody
TTITLE6=Dynaflow
TTITLE7=What's New
TTITLE8=Jump for Joe
TTITLE9=Night Watch
TTITLE10=Francesca
TTITLE11=Soliloquy
TTITLE12=Lazy Daisy
TTITLE13=Mambo Rhapsody
TTITLE14=Riff Raff
TTITLE15=Star Dust
TTITLE16=Bags and Baggage
TTITLE17=Bill's Blues
TTITLE18=Cool Eyes
TTITLE19=Beehive
TTITLE20=Lover Man
TTITLE21=Fascinating Rhythm
EXTD=YEAR: 2001
EXTT0=
EXTT1=
EXTT2=
EXTT3=
EXTT4=
EXTT5=
EXTT6=
EXTT7=
EXTT8=
EXTT9=
EXTT10=
EXTT11=
EXTT12=
EXTT13=
EXTT14=
EXTT15=
EXTT16=
EXTT17=
EXTT18=
EXTT19=
EXTT20=
EXTT21=
PLAYORDER=
